HIERARCHY
ROOT Hips
{
	OFFSET 0.000000 35.082581 0.000000
	CHANNELS 6 Xposition Yposition Zposition Xrotation Yrotation Zrotation 
	JOINT Spine
	{
		OFFSET 0.000000 6.876099 0.125700
		CHANNELS 3 Xrotation Yrotation Zrotation
		JOINT Spine1
		{
			OFFSET 0.000000 5.730043 0.104720
			CHANNELS 3 Xrotation Yrotation Zrotation
			JOINT Spine1_split
			{
				OFFSET 0.000000 5.730043 0.104720
				CHANNELS 3 Xrotation Yrotation Zrotation
				JOINT Spine2
				{
					OFFSET 0.000000 5.730043 0.104720
					CHANNELS 3 Xrotation Yrotation Zrotation
					JOINT Neck
					{
						OFFSET 0.000000 10.314075 0.188496
						CHANNELS 3 Xrotation Yrotation Zrotation
						JOINT Head
						{
							OFFSET 0.000000 7.643700 -2.377400
							CHANNELS 3 Xrotation Yrotation Zrotation
							JOINT HeadTop_End
							{
								OFFSET 0.000000 43.788605 -13.619600
								CHANNELS 3 Xrotation Yrotation Zrotation
								End Site
								{
									OFFSET 0.000000 0.000000 0.000000
								}
							}
						}
					}
					JOINT LeftShoulder
					{
						OFFSET 2.196100 4.412489 0.087492
						CHANNELS 3 Xrotation Yrotation Zrotation
						JOINT LeftShoulder_split
						{
							OFFSET 2.196100 4.412489 0.087492
							CHANNELS 3 Xrotation Yrotation Zrotation
							JOINT LeftArm
							{
								OFFSET 8.771219 -2.981674 -0.026999
								CHANNELS 3 Xrotation Yrotation Zrotation
								JOINT LeftForeArm
								{
									OFFSET 8.512804 0.000000 -0.000000
									CHANNELS 3 Xrotation Yrotation Zrotation
									JOINT LeftHand
									{
										OFFSET 18.484802 0.000000 -0.000000
										CHANNELS 3 Xrotation Yrotation Zrotation
										JOINT LeftHandThumb1
										{
											OFFSET 2.499420 -1.158070 2.653252
											CHANNELS 3 Xrotation Yrotation Zrotation
											JOINT LeftHandThumb2
											{
												OFFSET 2.370079 -1.368366 1.368366
												CHANNELS 3 Xrotation Yrotation Zrotation
												JOINT LeftHandThumb3
												{
													OFFSET 2.676727 -1.545410 1.545409
													CHANNELS 3 Xrotation Yrotation Zrotation
													JOINT LeftHandThumb4
													{
														OFFSET 1.692226 -0.977005 0.977007
														CHANNELS 3 Xrotation Yrotation Zrotation
														End Site
														{
															OFFSET 0.000000 0.000000 0.000000
														}
													}
												}
											}
										}
										JOINT LeftHandIndex1
										{
											OFFSET 7.924831 -0.457527 2.345128
											CHANNELS 3 Xrotation Yrotation Zrotation
											JOINT LeftHandIndex2
											{
												OFFSET 3.643303 0.000000 0.000000
												CHANNELS 3 Xrotation Yrotation Zrotation
												JOINT LeftHandIndex3
												{
													OFFSET 3.810799 0.000000 0.000000
													CHANNELS 3 Xrotation Yrotation Zrotation
													JOINT LeftHandIndex4
													{
														OFFSET 2.403702 0.000000 0.000000
														CHANNELS 3 Xrotation Yrotation Zrotation
														End Site
														{
															OFFSET 0.000000 0.000000 0.000000
														}
													}
												}
											}
										}
										JOINT LeftHandMiddle1
										{
											OFFSET 8.563995 0.000000 -0.000000
											CHANNELS 3 Xrotation Yrotation Zrotation
											JOINT LeftHandMiddle2
											{
												OFFSET 3.861618 0.000000 0.000000
												CHANNELS 3 Xrotation Yrotation Zrotation
												JOINT LeftHandMiddle3
												{
													OFFSET 3.701603 0.000000 0.000000
													CHANNELS 3 Xrotation Yrotation Zrotation
													JOINT LeftHandMiddle4
													{
														OFFSET 2.322544 0.000000 0.000000
														CHANNELS 3 Xrotation Yrotation Zrotation
														End Site
														{
															OFFSET 0.000000 0.000000 0.000000
														}
													}
												}
											}
										}
										JOINT LeftHandRing1
										{
											OFFSET 8.426460 -0.424637 -3.286992
											CHANNELS 3 Xrotation Yrotation Zrotation
											JOINT LeftHandRing2
											{
												OFFSET 3.126408 0.000000 0.000000
												CHANNELS 3 Xrotation Yrotation Zrotation
												JOINT LeftHandRing3
												{
													OFFSET 3.085026 0.000000 0.000000
													CHANNELS 3 Xrotation Yrotation Zrotation
													JOINT LeftHandRing4
													{
														OFFSET 1.644005 0.000000 0.000000
														CHANNELS 3 Xrotation Yrotation Zrotation
														End Site
														{
															OFFSET 0.000000 0.000000 0.000000
														}
													}
												}
											}
										}
									}
								}
							}
						}
					}
					JOINT RightShoulder
					{
						OFFSET -2.196100 4.412496 0.070690
						CHANNELS 3 Xrotation Yrotation Zrotation
						JOINT RightShoulder_split
						{
							OFFSET -2.196100 4.412496 0.070690
							CHANNELS 3 Xrotation Yrotation Zrotation
							JOINT RightArm
							{
								OFFSET -8.771282 -2.981682 -0.094208
								CHANNELS 3 Xrotation Yrotation Zrotation
								JOINT RightForeArm
								{
									OFFSET -8.494598 0.000000 0.000000
									CHANNELS 3 Xrotation Yrotation Zrotation
									JOINT RightHand
									{
										OFFSET -18.483803 0.000000 0.000001
										CHANNELS 3 Xrotation Yrotation Zrotation
										JOINT RightHandThumb1
										{
											OFFSET -2.527351 -1.008072 2.575253
											CHANNELS 3 Xrotation Yrotation Zrotation
											JOINT RightHandThumb2
											{
												OFFSET -2.321518 -1.340328 1.340329
												CHANNELS 3 Xrotation Yrotation Zrotation
												JOINT RightHandThumb3
												{
													OFFSET -2.657753 -1.534454 1.534455
													CHANNELS 3 Xrotation Yrotation Zrotation
													JOINT RightHandThumb4
													{
														OFFSET -1.807510 -1.043568 1.043567
														CHANNELS 3 Xrotation Yrotation Zrotation
														End Site
														{
															OFFSET 0.000000 0.000000 0.000000
														}
													}
												}
											}
										}
										JOINT RightHandIndex1
										{
											OFFSET -8.811420 0.015533 2.887987
											CHANNELS 3 Xrotation Yrotation Zrotation
											JOINT RightHandIndex2
											{
												OFFSET -3.537502 0.000000 0.000000
												CHANNELS 3 Xrotation Yrotation Zrotation
												JOINT RightHandIndex3
												{
													OFFSET -3.356201 0.000000 0.000000
													CHANNELS 3 Xrotation Yrotation Zrotation
													JOINT RightHandIndex4
													{
														OFFSET -1.933098 0.000000 0.000000
														CHANNELS 3 Xrotation Yrotation Zrotation
														End Site
														{
															OFFSET 0.000000 0.000000 0.000000
														}
													}
												}
											}
										}
										JOINT RightHandMiddle1
										{
											OFFSET -8.178135 0.000000 0.000000
											CHANNELS 3 Xrotation Yrotation Zrotation
											JOINT RightHandMiddle2
											{
												OFFSET -3.901302 0.000000 0.000000
												CHANNELS 3 Xrotation Yrotation Zrotation
												JOINT RightHandMiddle3
												{
													OFFSET -3.909599 0.000000 0.000000
													CHANNELS 3 Xrotation Yrotation Zrotation
													JOINT RightHandMiddle4
													{
														OFFSET -2.376003 0.000000 0.000000
														CHANNELS 3 Xrotation Yrotation Zrotation
														End Site
														{
															OFFSET 0.000000 0.000000 0.000000
														}
													}
												}
											}
										}
										JOINT RightHandRing1
										{
											OFFSET -7.559013 0.014137 -2.865403
											CHANNELS 3 Xrotation Yrotation Zrotation
											JOINT RightHandRing2
											{
												OFFSET -3.449306 0.000000 0.000000
												CHANNELS 3 Xrotation Yrotation Zrotation
												JOINT RightHandRing3
												{
													OFFSET -3.362106 0.000000 0.000000
													CHANNELS 3 Xrotation Yrotation Zrotation
													JOINT RightHandRing4
													{
														OFFSET -2.076401 0.000000 0.000000
														CHANNELS 3 Xrotation Yrotation Zrotation
														End Site
														{
															OFFSET 0.000000 0.000000 0.000000
														}
													}
												}
											}
										}
									}
								}
							}
						}
					}
				}
			}
		}
	}
	JOINT LeftUpLeg
	{
		OFFSET 10.205400 -3.823500 0.155100
		CHANNELS 3 Xrotation Yrotation Zrotation
		JOINT LeftLeg
		{
			OFFSET 0.708757 -12.982077 0.567790
			CHANNELS 3 Xrotation Yrotation Zrotation
			JOINT LeftFoot
			{
				OFFSET -0.708756 -10.717838 -2.184338
				CHANNELS 3 Xrotation Yrotation Zrotation
				JOINT LeftToeBase
				{
					OFFSET 0.108149 -7.191104 7.560241
					CHANNELS 3 Xrotation Yrotation Zrotation
					JOINT LeftToe_End
					{
						OFFSET 0.070230 0.081724 4.490308
						CHANNELS 3 Xrotation Yrotation Zrotation
						End Site
						{
							OFFSET 0.000000 0.000000 0.000000
						}
					}
				}
			}
		}
	}
	JOINT RightUpLeg
	{
		OFFSET -10.205400 -3.823500 0.005500
		CHANNELS 3 Xrotation Yrotation Zrotation
		JOINT RightLeg
		{
			OFFSET -0.708756 -12.982134 0.610632
			CHANNELS 3 Xrotation Yrotation Zrotation
			JOINT RightFoot
			{
				OFFSET 0.708754 -10.717769 -1.945823
				CHANNELS 3 Xrotation Yrotation Zrotation
				JOINT RightToeBase
				{
					OFFSET -0.108140 -7.191069 7.372968
					CHANNELS 3 Xrotation Yrotation Zrotation
					JOINT RightToe_End
					{
						OFFSET -0.070227 0.081735 4.479403
						CHANNELS 3 Xrotation Yrotation Zrotation
						End Site
						{
							OFFSET 0.000000 0.000000 0.000000
						}
					}
				}
			}
		}
	}
}
MOTION
Frames: 4
Frame Time: 0.016667
-0.291183 31.445007 0.046888 -10.796112 -54.466128 -7.000068 5.268739 0.388021 0.651928 4.893951 1.120459 0.299612 0.000000 0.000000 0.000000 8.444753 1.036550 0.033107 2.537413 5.572981 -0.185907 2.372534 37.187190 -7.338933 0.000001 0.000000 -0.000001 9.150561 -24.592612 -2.246838 0.000000 0.000000 0.000000 -26.053179 8.217172 -60.618789 -91.270179 13.114554 -86.117177 -27.757930 -7.625862 -6.300462 0.699135 9.503381 -2.418113 5.975183 12.647536 1.348333 -23.873570 -17.664201 1.604911 -0.000002 0.000004 -0.000000 9.479713 -1.289772 -20.785558 0.709479 2.796407 -28.467084 0.714021 2.804788 -28.559748 -0.000001 -0.000000 0.000001 10.058160 -1.800595 -20.644715 1.774268 4.200475 -45.782058 1.632180 4.057800 -43.809390 -0.000001 0.000002 -0.000001 1.254227 -0.073705 -17.945777 3.754091 5.463636 -68.965287 5.298535 9.638361 -33.747070 0.000001 -0.000000 -0.000003 10.411199 20.330622 -1.369233 0.000000 0.000000 0.000000 3.446554 33.597041 47.887877 68.289775 116.117437 -81.856197 -10.139695 21.396988 14.282920 13.942504 -4.273684 -5.300360 7.113154 -20.767448 -2.619493 -3.463286 -24.899779 -18.660459 -0.000002 0.000002 -0.000000 0.357758 -5.832688 5.175839 0.094359 -0.933677 11.539911 0.777656 -2.578469 33.559950 0.000000 0.000001 -0.000001 3.764088 -12.080447 1.143778 5.714305 -4.535854 103.133575 3.160519 -4.410590 71.234953 -0.000001 0.000000 -0.000000 -12.155583 -12.623922 9.228351 6.566869 -4.248454 114.232366 3.755203 -4.569198 78.819686 0.000001 0.000001 0.000001 -23.254658 10.138821 23.330167 39.342477 9.654164 -2.285707 -4.485499 3.097451 -15.987846 -0.208565 0.099053 0.223845 -0.000000 0.000000 0.000000 -15.809875 -17.284676 -28.397664 45.653708 1.193331 -2.417588 -23.518624 -3.404118 18.070196 1.656365 2.194974 2.024738 -0.000000 -0.000000 -0.000000 
-0.325992 31.412392 0.234778 -10.359694 -53.036371 -6.568094 5.213797 0.294757 0.785190 4.881396 0.959830 0.315643 0.000000 0.000000 0.000000 8.443272 1.126757 0.051352 2.560044 5.635927 -0.196396 2.510868 38.008101 -7.338062 0.000000 0.000000 0.000000 8.936006 -24.743240 -2.968073 0.000000 0.000000 0.000000 -26.604876 8.959852 -60.009803 -91.306037 12.800138 -85.897661 -27.851664 -7.038007 -5.777686 0.699128 9.503382 -2.418112 5.975183 12.647538 1.348330 -23.873572 -17.664206 1.604914 -0.000002 0.000002 -0.000000 9.479713 -1.289771 -20.785555 0.709477 2.796413 -28.467081 0.714024 2.804788 -28.559753 0.000001 0.000001 -0.000000 10.058160 -1.800589 -20.644715 1.774266 4.200471 -45.782058 1.632181 4.057802 -43.809397 0.000002 -0.000000 -0.000001 1.254222 -0.073704 -17.945777 3.754090 5.463631 -68.965294 5.298535 9.638359 -33.747073 0.000006 -0.000001 -0.000003 10.571318 20.013223 -2.157012 0.000000 0.000000 0.000000 3.272271 35.427536 47.124002 70.645985 116.398909 -84.504282 -10.445469 22.183747 13.476853 13.942504 -4.273678 -5.300361 7.113154 -20.767448 -2.619497 -3.463284 -24.899779 -18.660458 -0.000000 -0.000003 -0.000000 0.357759 -5.832688 5.175840 0.094360 -0.933677 11.539911 0.777656 -2.578468 33.559943 -0.000000 0.000001 0.000002 3.764090 -12.080448 1.143780 5.714306 -4.535854 103.133575 3.160519 -4.410590 71.234946 -0.000001 0.000000 -0.000000 -12.155583 -12.623924 9.228355 6.566868 -4.248454 114.232366 3.755201 -4.569197 78.819680 0.000001 0.000000 -0.000001 -24.327857 9.946635 22.909448 40.069557 8.606314 -2.371104 -4.829268 2.911022 -15.072387 -0.188837 0.105928 0.218451 0.000000 -0.000000 -0.000000 -14.857565 -16.016252 -28.304215 47.119064 -0.535653 -0.903016 -24.852914 -3.133952 16.199928 2.853507 0.034055 4.199198 0.000000 0.000001 -0.000000 
-0.362353 31.369720 0.440626 -9.949978 -51.602410 -6.186079 5.202808 0.268102 0.850483 4.875919 0.893841 0.313337 0.000000 0.000000 0.000000 8.471701 1.741681 0.006408 2.611685 5.795511 -0.175232 2.871613 40.218510 -7.339838 0.000000 -0.000000 0.000000 8.935994 -24.743303 -2.968065 0.000000 0.000000 0.000000 -27.022578 9.098564 -59.788744 -91.418121 12.788570 -85.389761 -28.033251 -6.726871 -5.796749 0.699137 9.503380 -2.418118 5.975183 12.647542 1.348333 -23.873574 -17.664201 1.604915 -0.000001 -0.000000 -0.000002 9.479715 -1.289773 -20.785563 0.709477 2.796405 -28.467081 0.714028 2.804786 -28.559748 0.000000 -0.000000 -0.000000 10.058162 -1.800590 -20.644720 1.774269 4.200469 -45.782058 1.632175 4.057800 -43.809397 0.000002 -0.000001 -0.000002 1.254224 -0.073708 -17.945774 3.754090 5.463640 -68.965287 5.298538 9.638360 -33.747073 -0.000002 0.000001 0.000001 10.565207 19.946551 -2.142260 0.000000 0.000000 0.000000 2.607385 35.855160 47.333556 71.764661 116.208401 -85.770961 -10.570379 21.998945 13.615186 13.942501 -4.273683 -5.300360 7.113155 -20.767448 -2.619497 -3.463288 -24.899779 -18.660458 -0.000001 -0.000003 0.000003 0.357758 -5.832689 5.175838 0.094360 -0.933678 11.539911 0.777656 -2.578469 33.559947 -0.000000 0.000000 -0.000001 3.764090 -12.080446 1.143778 5.714305 -4.535854 103.133575 3.160520 -4.410590 71.234946 -0.000000 0.000000 -0.000000 -12.155580 -12.623922 9.228351 6.566870 -4.248455 114.232366 3.755199 -4.569197 78.819680 -0.000000 0.000001 0.000001 -25.401989 9.743340 22.515672 40.949194 7.564723 -2.529220 -5.289883 2.707924 -14.122535 -0.178034 0.111281 0.205854 -0.000000 0.000001 0.000000 -15.200212 -13.677306 -28.611398 50.626725 -1.612106 -0.152039 -24.133452 -3.353857 16.021042 2.017958 -2.440010 5.570028 -0.000000 0.000000 -0.000000 
-0.398013 31.320450 0.671520 -9.564786 -50.166438 -5.838307 5.201053 0.249014 0.888624 4.870108 0.829830 0.304666 0.000000 0.000000 0.000000 8.520206 2.710888 -0.072870 2.689523 6.030635 -0.142777 3.412320 43.413936 -7.365481 0.000000 -0.000000 -0.000000 8.936026 -24.743296 -2.968066 0.000000 0.000000 0.000000 -27.403882 9.241062 -59.623057 -91.512807 12.777792 -84.960627 -28.164041 -6.454036 -5.810563 0.699130 9.503379 -2.418113 5.975188 12.647540 1.348327 -23.873576 -17.664204 1.604912 0.000001 -0.000001 -0.000002 9.479713 -1.289774 -20.785555 0.709477 2.796412 -28.467086 0.714021 2.804788 -28.559746 0.000000 0.000000 0.000000 10.058159 -1.800591 -20.644715 1.774267 4.200472 -45.782058 1.632174 4.057801 -43.809397 -0.000003 -0.000000 -0.000003 1.254223 -0.073703 -17.945774 3.754091 5.463634 -68.965287 5.298529 9.638360 -33.747073 -0.000001 -0.000002 -0.000002 10.560335 19.868226 -2.125412 0.000000 0.000000 0.000000 2.003540 36.236110 47.517141 72.763617 116.049695 -86.902491 -10.678787 21.824888 13.770445 13.942503 -4.273684 -5.300358 7.113152 -20.767445 -2.619494 -3.463286 -24.899779 -18.660458 -0.000000 -0.000001 0.000003 0.357757 -5.832690 5.175836 0.094360 -0.933679 11.539911 0.777655 -2.578467 33.559947 0.000000 -0.000001 0.000000 3.764089 -12.080448 1.143779 5.714306 -4.535855 103.133575 3.160519 -4.410590 71.234946 -0.000000 0.000000 -0.000001 -12.155583 -12.623921 9.228351 6.566870 -4.248454 114.232366 3.755202 -4.569196 78.819680 -0.000002 0.000002 0.000001 -26.447269 9.551003 22.134872 41.919907 6.515825 -2.787175 -5.841699 2.488864 -13.099021 -0.168818 0.115102 0.195284 0.000000 -0.000002 -0.000000 -15.724349 -10.959116 -28.559563 54.312797 -2.593733 0.270761 -22.966241 -3.742236 16.118567 0.473877 -4.680634 7.063183 0.000000 0.000000 0.000000 
